<svg width="34" height="20" viewBox="0 0 34 20" fill="none" xmlns="http://www.w3.org/2000/svg">
<g clip-path="url(#clip0_9696_561)">
<mask id="mask0_9696_561" style="mask-type:luminance" maskUnits="userSpaceOnUse" x="0" y="0" width="34" height="20">
<path d="M34 0H0V20H34V0Z" fill="white"/>
</mask>
<g mask="url(#mask0_9696_561)">
<path d="M34 0H0V20H34V0Z" fill="white"/>
</g>
<mask id="mask1_9696_561" style="mask-type:luminance" maskUnits="userSpaceOnUse" x="0" y="0" width="34" height="20">
<path d="M34 0H0V20H34V0Z" fill="white"/>
</mask>
<g mask="url(#mask1_9696_561)">
<path d="M22.7645 7.23187L33.9999 0.888662V0H33.2299L20.4141 7.23187H22.7645Z" fill="#BD0034"/>
</g>
<mask id="mask2_9696_561" style="mask-type:luminance" maskUnits="userSpaceOnUse" x="0" y="0" width="34" height="20">
<path d="M34 0H0V20H34V0Z" fill="white"/>
</mask>
<g mask="url(#mask2_9696_561)">
<path d="M22.2378 13.1665L34 19.8059V18.478L24.5882 13.1665H22.2378Z" fill="#BD0034"/>
</g>
<mask id="mask3_9696_561" style="mask-type:luminance" maskUnits="userSpaceOnUse" x="0" y="0" width="34" height="20">
<path d="M34 0H0V20H34V0Z" fill="white"/>
</mask>
<g mask="url(#mask3_9696_561)">
<path d="M0 1.52198L10.0602 7.23189H12.4207L0 0.194092V1.52198Z" fill="#BD0034"/>
</g>
<mask id="mask4_9696_561" style="mask-type:luminance" maskUnits="userSpaceOnUse" x="0" y="0" width="34" height="20">
<path d="M34 0H0V20H34V0Z" fill="white"/>
</mask>
<g mask="url(#mask4_9696_561)">
<path d="M11.8838 13.1665L0 19.8774V20H2.14779L14.2342 13.1665H11.8838Z" fill="#BD0034"/>
</g>
<mask id="mask5_9696_561" style="mask-type:luminance" maskUnits="userSpaceOnUse" x="0" y="0" width="34" height="20">
<path d="M34 0H0V20H34V0Z" fill="white"/>
</mask>
<g mask="url(#mask5_9696_561)">
<path d="M31.6801 0H19.7659V6.72114L31.6801 0Z" fill="#1A237B"/>
</g>
<mask id="mask6_9696_561" style="mask-type:luminance" maskUnits="userSpaceOnUse" x="0" y="0" width="34" height="20">
<path d="M34 0H0V20H34V0Z" fill="white"/>
</mask>
<g mask="url(#mask6_9696_561)">
<path d="M14.5178 0H2.6543L14.5178 6.72114V0Z" fill="#1A237B"/>
</g>
<mask id="mask7_9696_561" style="mask-type:luminance" maskUnits="userSpaceOnUse" x="0" y="0" width="34" height="20">
<path d="M34 0H0V20H34V0Z" fill="white"/>
</mask>
<g mask="url(#mask7_9696_561)">
<path d="M34 7.23188V2.64557L25.9255 7.23188H34Z" fill="#1A237B"/>
</g>
<mask id="mask8_9696_561" style="mask-type:luminance" maskUnits="userSpaceOnUse" x="0" y="0" width="34" height="20">
<path d="M34 0H0V20H34V0Z" fill="white"/>
</mask>
<g mask="url(#mask8_9696_561)">
<path d="M34 17.7017V13.1665H25.9255L34 17.7017Z" fill="#1A237B"/>
</g>
<mask id="mask9_9696_561" style="mask-type:luminance" maskUnits="userSpaceOnUse" x="0" y="0" width="34" height="20">
<path d="M34 0H0V20H34V0Z" fill="white"/>
</mask>
<g mask="url(#mask9_9696_561)">
<path d="M3.33325 20H14.518V13.6772L3.33325 20Z" fill="#1A237B"/>
</g>
<mask id="mask10_9696_561" style="mask-type:luminance" maskUnits="userSpaceOnUse" x="0" y="0" width="34" height="20">
<path d="M34 0H0V20H34V0Z" fill="white"/>
</mask>
<g mask="url(#mask10_9696_561)">
<path d="M19.7659 20H30.9911L19.7659 13.6772V20Z" fill="#1A237B"/>
</g>
<mask id="mask11_9696_561" style="mask-type:luminance" maskUnits="userSpaceOnUse" x="0" y="0" width="34" height="20">
<path d="M34 0H0V20H34V0Z" fill="white"/>
</mask>
<g mask="url(#mask11_9696_561)">
<path d="M0 13.1665V17.9162L8.35816 13.1665H0Z" fill="#1A237B"/>
</g>
<mask id="mask12_9696_561" style="mask-type:luminance" maskUnits="userSpaceOnUse" x="0" y="0" width="34" height="20">
<path d="M34 0H0V20H34V0Z" fill="white"/>
</mask>
<g mask="url(#mask12_9696_561)">
<path d="M0 7.23186H8.35816L0 2.48212V7.23186Z" fill="#1A237B"/>
</g>
<mask id="mask13_9696_561" style="mask-type:luminance" maskUnits="userSpaceOnUse" x="0" y="0" width="34" height="20">
<path d="M34 0H0V20H34V0Z" fill="white"/>
</mask>
<g mask="url(#mask13_9696_561)">
<path d="M15.5614 0V8.41675H0V11.9816H15.5614V20H18.7223V11.9816H34V8.41675H18.7223V0H15.5614Z" fill="#BD0034"/>
</g>
</g>
<defs>
<clipPath id="clip0_9696_561">
<rect width="34" height="20" fill="white"/>
</clipPath>
</defs>
</svg>
